<?xml version="1.0" encoding="utf-8"?>
<!-- Generator: Adobe Illustrator 26.3.1, SVG Export Plug-In . SVG Version: 6.00 Build 0)  -->
<svg version="1.1" id="Layer_1" xmlns="http://www.w3.org/2000/svg" xmlns:xlink="http://www.w3.org/1999/xlink" x="0px" y="0px"
	 viewBox="0 0 24 24" style="enable-background:new 0 0 24 24;" xml:space="preserve">
<style type="text/css">
	.st0{fill:none;}
	.st1{fill:#2774AE;}
</style>
<g>
	<rect class="st0" width="24" height="24"/>
</g>
<g>
	<g>
		<path class="st1" d="M15.4,0.6l-3.2,3.2c-0.8,0.8-0.8,2,0,2.8l1.2,1.2l-0.7,0.7l-1.2-1.2c-0.8-0.8-2.1-0.8-2.8,0L7.3,8.7
			c-0.8,0.8-0.8,2.1,0,2.8l1.2,1.2l-0.7,0.7l-1.2-1.2c-0.8-0.8-2-0.8-2.8,0l-3.2,3.2c-0.8,0.8-0.8,2,0,2.8l3.5,3.5
			c0.8,0.8,2.1,0.8,2.8,0l3.2-3.2c0.8-0.8,0.8-2,0-2.8l-1.2-1.2l0.7-0.7l1.2,1.2c0.8,0.8,2.1,0.8,2.8,0l1.4-1.4
			c0.8-0.8,0.8-2.1,0-2.8l-1.2-1.2l0.7-0.7l1.2,1.2c0.8,0.8,2.1,0.8,2.8,0l3.2-3.2c0.8-0.8,0.8-2.1,0-2.8l-3.5-3.5
			C17.5-0.2,16.2-0.2,15.4,0.6z M6.6,19.3l-1.1,1.1L2,16.9l1.1-1.1L6.6,19.3z M8.7,17.2l-1.1,1.1l-3.5-3.5l1.1-1.1L8.7,17.2z
			 M18.3,7.7l-1.1,1.1l-3.5-3.5l1.1-1.1L18.3,7.7z M20.4,5.5l-1.1,1.1l-3.5-3.5L16.9,2L20.4,5.5z M14,21v2c5,0,9-4,9-9h-2
			C21,17.9,17.9,21,14,21z M14,17v2c2.8,0,5-2.2,5-5h-2C17,15.7,15.7,17,14,17z"/>
	</g>
</g>
</svg>
