<svg id="ucla-ioes-logo" xmlns="http://www.w3.org/2000/svg" viewBox="0 0 399.06 44"><defs><style>.cls-1{fill:#fff}</style></defs><path class="cls-1" d="M99.95 5.87h1.21v9.65h-1.21V5.87zM103.89 9.46a2.63 2.63 0 0 1 2.21-1.08c.11-.02.22-.03.34-.03 1.15 0 2.09.94 2.09 2.09V15.53h-1.09v-4.82c0-.9-.6-1.41-1.58-1.41h-.11c-1.01 0-1.85.83-1.85 1.85v4.37h-1v-7h1v.94ZM109.48 13.25h1.12c.15 1.22 1 1.55 2 1.55s1.62-.5 1.62-1.14c0-.79-.54-1-1.83-1.26s-2.6-.57-2.6-2.09c0-1.16.89-1.92 2.51-1.92s2.58.82 2.74 2.19h-1.15c-.11-.92-.61-1.33-1.65-1.33s-1.4.45-1.4 1c0 .76.67.91 1.87 1.15 1.41.29 2.58.6 2.58 2.2 0 1.41-1.14 2.12-2.75 2.12-1.89 0-2.95-.9-3.06-2.47ZM115.69 8.54h1v-2.2h1.09v2.2h1.35v.89h-1.34v4.54c0 .48.26.65.7.65.2 0 .4-.04.59-.1v.95c-.29.06-.58.09-.88.09-.89 0-1.54-.36-1.54-1.35V9.43h-1l.03-.89ZM120.09 5.87h1.09v1.35h-1.09V5.87Zm0 2.67h1.09v7h-1.09v-7ZM122.03 8.54h1v-2.2h1.09v2.2h1.35v.89h-1.35v4.54c0 .48.26.65.71.65.2 0 .39-.04.58-.1v.95c-.29.06-.58.09-.88.09-.89 0-1.54-.36-1.54-1.35V9.43h-1l.04-.89ZM130.89 15.52v-1a2.43 2.43 0 0 1-2.11 1.12h-.2c-1.18 0-2.16-.98-2.16-2.16V8.53h1.1v4.88c0 .75.62 1.37 1.37 1.37.06 0 .13 0 .19-.01.99 0 1.81-.82 1.81-1.81V8.53h1.09v7l-1.09-.02ZM132.8 8.54h1v-2.2h1.09v2.2h1.35v.89h-1.35v4.54c0 .48.25.65.7.65.2 0 .39-.04.58-.1v.95c-.29.06-.58.09-.88.09-.89 0-1.54-.36-1.54-1.35V9.43h-1l.05-.89ZM136.62 12.04c0-.09-.01-.18-.01-.27 0-1.82 1.46-3.34 3.28-3.41 2.09 0 3.22 1.62 3.22 3.93h-5.41c.08 1.42.85 2.5 2.26 2.5.91.08 1.74-.54 1.93-1.43h1.07a2.854 2.854 0 0 1-3 2.35c-1.84-.02-3.35-1.54-3.35-3.38 0-.1 0-.19.01-.29Zm1.15-.57h4.2c-.07-1.39-.78-2.24-2-2.24s-2.08.97-2.2 2.24ZM145.96 12.04c0-.09-.01-.17-.01-.26 0-1.85 1.53-3.38 3.38-3.38s3.38 1.53 3.38 3.38c0 .09 0 .17-.01.26 0 .09.01.17.01.26 0 1.85-1.53 3.38-3.38 3.38s-3.38-1.53-3.38-3.38c0-.09 0-.17.01-.26Zm5.62 0c0-1.54-.75-2.77-2.24-2.77s-2.25 1.23-2.25 2.77.77 2.75 2.25 2.75 2.24-1.16 2.24-2.75ZM153.08 8.54h1V7.42c0-1.2.68-1.64 1.85-1.64h.55v.93h-.35c-.7 0-1 .18-1 .74v1.07h1.3v.89h-1.3v6.09h-1.09V9.43h-1l.04-.89ZM159.19 8.54h1v-2.2h1.1v2.2h1.35v.89h-1.35v4.54c0 .48.26.65.7.65.2 0 .39-.04.58-.1v.95c-.29.06-.58.09-.88.09-.89 0-1.54-.36-1.54-1.35V9.43h-1l.04-.89ZM164.67 9.46c.51-.71 1.35-1.11 2.22-1.08.1-.01.19-.02.29-.02 1.15 0 2.09.94 2.09 2.09v5.08h-1.09v-4.82c0-.9-.6-1.41-1.58-1.41h-.07c-1.01 0-1.85.84-1.85 1.85v4.37h-1.09V5.87h1.09v3.59ZM170.29 12.04c0-.09-.01-.18-.01-.27 0-1.84 1.48-3.36 3.32-3.41 2.09 0 3.21 1.62 3.21 3.93h-5.4c.08 1.42.85 2.5 2.26 2.5.91.08 1.74-.54 1.93-1.43h1.06a2.839 2.839 0 0 1-3 2.35h-.01c-1.85 0-3.37-1.52-3.37-3.37 0-.1 0-.2.01-.3Zm1.15-.57h4.2c-.07-1.39-.78-2.24-2-2.24s-2.04.97-2.2 2.24ZM100.35 20.92h12.75v3h-9.21v3.88h8.09v2.83h-8.09v4.7h9.31v2.93h-12.85V20.92zM118.18 27.52h.07c.76-1.3 2.19-2.07 3.69-2 2.57 0 4.29 1.94 4.29 4.66v8.12h-3.34v-7.67c0-.07.01-.14.01-.21 0-1.14-.93-2.07-2.07-2.07h-.1a2.614 2.614 0 0 0-2.52 2.86v7.06h-3.3V25.82h3.23l.04 1.7ZM126.67 25.82h3.34l2 6.45c.36 1.19.56 2 .56 2h.05s.17-.8.53-2l2-6.45h3.29l-4.34 12.44h-3.15l-4.28-12.44ZM139.42 20.92h3.3v3h-3.3v-3Zm0 4.9h3.3v12.44h-3.3V25.82ZM147.96 27.81h.08c.75-1.41 1.6-2.13 3-2.13.26-.02.53.02.78.09v2.86h-.08c-2.15-.22-3.71.92-3.71 3.54v6.06h-3.24V25.82h3.17v1.99ZM152.35 32.05c0-3.57 2.93-6.5 6.5-6.5s6.5 2.93 6.5 6.5-2.93 6.5-6.5 6.5-6.5-2.93-6.5-6.5Zm9.65 0c0-2.42-1.14-4.07-3.16-4.07s-3.15 1.65-3.15 4.07 1.12 4 3.15 4 3.16-1.57 3.16-4ZM170.05 27.52h.08c.75-1.3 2.18-2.08 3.68-2 2.57 0 4.29 1.94 4.29 4.66v8.12h-3.29v-7.67c0-.07.01-.14.01-.21 0-1.14-.93-2.07-2.07-2.07h-.1a2.614 2.614 0 0 0-2.52 2.86v7.06h-3.3V25.82h3.22v1.7ZM180.13 25.82h3.18v1.68h.07a3.992 3.992 0 0 1 3.62-2 3.73 3.73 0 0 1 3.44 2.13 4.334 4.334 0 0 1 3.73-2.19c2.62 0 4.1 1.7 4.1 4.42v8.36h-3.3v-7.77c0-1.4-.7-2.13-1.91-2.13-1.39 0-2.24 1.07-2.24 2.71v7.23h-3.29v-7.81c0-1.4-.71-2.13-1.92-2.13s-2.23 1.07-2.23 2.71v7.23h-3.3l.05-12.44ZM199.74 32.03c0-3.69 2.5-6.55 6.14-6.55 4 0 6.13 3.06 6.13 7.49h-9c.25 1.92 1.31 3.11 3.18 3.11 1.05.1 2.05-.53 2.4-1.53h3.25c-.46 2.21-2.43 4.07-5.63 4.07-4.14 0-6.47-2.88-6.47-6.59Zm3.3-1.33h5.53v-.05c0-1.44-1.18-2.62-2.62-2.62h-.06c-1.71 0-2.56 1.04-2.85 2.67ZM216.72 27.52h.08c.75-1.3 2.18-2.08 3.68-2 2.57 0 4.29 1.94 4.29 4.66v8.12h-3.29v-7.67c0-.07.01-.14.01-.21 0-1.14-.93-2.07-2.07-2.07h-.1a2.614 2.614 0 0 0-2.52 2.86v7.06h-3.3V25.82h3.22v1.7ZM225.68 25.82h1.72v-3.88h3.22v3.88h2.14v2.19h-2.14v6.74c0 .6.5 1.1 1.1 1.1.06 0 .12 0 .18-.01h1v2.43h-2.06c-1.6 0-3.37-.63-3.37-3v-7.26h-1.72l-.06-2.19ZM237.89 33.8c0-2.47 1.58-4 3.84-5.17a5.148 5.148 0 0 1-1.46-3.58c0-2.26 1.79-4 4.49-4s4.53 1.6 4.53 4c0 2.14-1.24 3.2-3.1 4.17l2.3 3c.35-.9.58-1.85.68-2.81h2.93c-.12 1.89-.68 3.73-1.65 5.36l2.74 3.54h-4l-.9-1.14a7.695 7.695 0 0 1-4.6 1.5c-3.8-.04-5.8-2.16-5.8-4.87Zm8.66 1.09-3.18-4.15c-1.19.53-1.97 1.7-2 3 0 1.22 1.01 2.22 2.23 2.22h.17c1.03 0 2.03-.38 2.81-1.06h-.03Zm-1.84-7.56c.88-.4 1.45-1.29 1.45-2.26v-.12c0-.75-.61-1.36-1.36-1.36s-1.36.61-1.36 1.36v.12c.11.89.58 1.71 1.29 2.26h-.03ZM258 32.9h3.45c.24 2.09 1.43 2.91 3.9 2.91 1.79 0 3.37-.63 3.37-2.23s-1.65-2-4.29-2.64c-3.11-.7-5.94-1.53-5.94-5.14 0-3.42 2.79-5.19 6.64-5.19s6.43 1.91 6.69 5.41h-3.37c-.19-1.75-1.55-2.62-3.34-2.62s-3.13.8-3.13 2c0 1.41 1.21 1.82 3.78 2.38 3.57.78 6.48 1.62 6.48 5.36 0 3.51-2.84 5.48-6.75 5.48-4.7 0-7.37-2.06-7.49-5.72ZM281.89 38.26v-1.45h-.07c-.78 1.2-2.14 1.9-3.57 1.82-2.77 0-4.32-1.77-4.32-4.49v-8.32h3.27v7.74c0 1.45.66 2.25 2.06 2.25 1.38 0 2.51-1.13 2.51-2.51 0-.1 0-.2-.02-.3v-7.18h3.3v12.44h-3.17ZM286.42 34.24h3.05c.22 1.43 1.24 2.06 2.72 2.06s2.28-.56 2.28-1.43c0-1.19-1.58-1.31-3.27-1.65-2.24-.44-4.42-1.05-4.42-3.76s2.23-4 5.07-4c3.27 0 5.09 1.63 5.33 4.12h-3c-.14-1.33-1-1.81-2.4-1.81s-2.13.48-2.13 1.38c0 1.07 1.65 1.16 3.42 1.53 2.08.43 4.38 1 4.38 3.92 0 2.5-2.13 4-5.23 4-3.59.03-5.61-1.72-5.8-4.36ZM297.96 25.82h1.72v-3.88h3.21v3.88h2.13v2.19h-2.13v6.62c0 .05-.01.11-.01.16 0 .6.49 1.09 1.09 1.09.05 0 .1 0 .15-.01h1v2.43h-2.06c-1.6 0-3.37-.63-3.37-3v-7.29h-1.72v-2.19ZM314.04 36.88c-.63.94-1.53 1.67-3.66 1.67-2.55 0-4.34-1.33-4.34-3.8 0-2.74 2.23-3.62 5-4 2.06-.29 3-.46 3-1.4s-.71-1.48-2.09-1.48c-1.55 0-2.3.56-2.4 1.74h-2.93c.09-2.18 1.72-4.09 5.36-4.09s5.23 1.67 5.23 4.58v6.33c0 .94.15 1.5.44 1.72v.12h-3.18c-.24-.43-.39-.9-.43-1.39Zm0-3v-1.87c-.73.34-1.51.58-2.3.72-1.73.39-2.57.78-2.57 1.94s.77 1.58 1.94 1.58c1.91 0 2.95-1.16 2.95-2.38h-.02ZM319.21 20.92h3.29v3h-3.29v-3Zm0 4.9h3.29v12.44h-3.29V25.82ZM327.8 27.52h.09c.76-1.3 2.19-2.07 3.69-2 2.57 0 4.29 1.94 4.29 4.66v8.12h-3.3v-7.67c0-.07.01-.14.01-.21 0-1.14-.93-2.07-2.07-2.07h-.1a2.614 2.614 0 0 0-2.52 2.85v7.06h-3.29V25.82h3.22l-.02 1.7ZM345.3 36.88h-.05c-.63.94-1.53 1.67-3.66 1.67-2.55 0-4.34-1.33-4.34-3.8 0-2.74 2.23-3.62 5-4 2.06-.29 3-.46 3-1.4s-.71-1.48-2.09-1.48c-1.55 0-2.3.56-2.4 1.74h-2.93c.09-2.18 1.72-4.09 5.36-4.09s5.23 1.67 5.23 4.58v6.33c0 .94.15 1.5.44 1.72v.12h-3.18c-.23-.43-.35-.9-.38-1.39Zm0-3v-1.87c-.73.34-1.51.58-2.3.72-1.73.39-2.57.78-2.57 1.94s.77 1.58 1.94 1.58c1.91 0 2.95-1.16 2.95-2.38h-.02ZM353.7 36.71h-.05v1.55h-3.18V20.92h3.3v6.41h.12a3.89 3.89 0 0 1 3.47-1.85c3.13 0 5.36 2.69 5.36 6.57s-2.18 6.58-5.31 6.58c-1.49.08-2.91-.66-3.71-1.92Zm5.62-4.66c0-2.3-.92-3.9-2.76-3.9-2.09 0-2.86 1.67-2.86 4s1.14 3.73 3 3.73 2.62-1.43 2.62-3.83ZM364.22 20.92h3.29v3h-3.29v-3Zm0 4.9h3.29v12.44h-3.29V25.82ZM369.6 20.92h3.29v17.34h-3.3l.01-17.34zM374.99 20.92h3.3v3h-3.3v-3Zm0 4.9h3.3v12.44h-3.3V25.82ZM379.4 25.82h1.72v-3.88h3.22v3.88h2.14v2.19h-2.14v6.62s-.01.1-.01.15c0 .6.5 1.1 1.1 1.1h1.15v2.43h-2.06c-1.6 0-3.37-.63-3.37-3v-7.29h-1.72l-.03-2.19ZM388.48 39.74h1.16c1.31 0 1.85-.68 1.85-1.7-.15-1.17-.49-2.31-1-3.37l-3.35-8.85h3.47l1.84 5.6c.39 1.14.81 2.72.81 2.72s.34-1.58.73-2.72l1.75-5.6h3.32l-4.25 12.81c-.95 2.76-1.87 3.75-4.39 3.75h-1.94v-2.64Z"/><path style="fill:#2774ae;fill-rule:evenodd" d="M92 0H0v44h92V0z"/><path class="cls-1" d="M14.71 26.23c-.04-.74-.04-1.48 0-2.22l1-12h3.85l-1 12.1c-.23 2.62.78 4.48 3.34 4.48s4-1.9 4.24-4.22L27.17 12H31l-1 12.22c-.42 4.71-3.48 8.23-8.43 8.23-3.85 0-6.34-2.55-6.81-6.22M31.9 22.17c.51-5.76 4.32-10.53 10.89-10.53 1.8-.03 3.56.49 5.06 1.49l-.44 4.76a5.643 5.643 0 0 0-5-2.37c-4.1 0-6.34 2.9-6.66 6.57-.32 3.67 1.49 6.48 5.46 6.48 2.1 0 4.1-.89 5.49-2.47l-.4 4.9c-1.63.95-3.48 1.47-5.37 1.5-6.51 0-9.49-4.93-9-10.32M50.93 12h3.84l-1.41 16.3h7.51c0 .2-.35 3.77-.35 3.77H49.18L50.93 12ZM70.93 19.49c.12-.27.22-.55.29-.84h.06c.02.29.07.57.15.85.21.91 1.7 6 1.7 6h-4.85s2.6-5.85 2.65-6m1-8.39h-.27L61.14 32h4.08l1.48-3.18h7.4L75 32h4.1l-7.17-20.89Z"/></svg>